<svg width="20" height="21" viewBox="0 0 20 21" fill="none" xmlns="http://www.w3.org/2000/svg">
<path d="M5.83333 3C3.99238 3 2.5 4.49238 2.5 6.33333V16.3333C2.5 18.1743 3.99238 19.6667 5.83333 19.6667H14.1667C16.0076 19.6667 17.5 18.1743 17.5 16.3333V6.33333C17.5 4.49238 16.0076 3 14.1667 3V4.66667C15.0871 4.66667 15.8333 5.41286 15.8333 6.33333V16.3333C15.8333 17.2538 15.0871 18 14.1667 18H5.83333C4.91286 18 4.16667 17.2538 4.16667 16.3333V6.33333C4.16667 5.41286 4.91286 4.66667 5.83333 4.66667V3Z" fill="#777E91"/>
<path d="M6.66659 9.66667C7.12682 9.66667 7.49992 9.29357 7.49992 8.83333C7.49992 8.3731 7.12682 8 6.66659 8C6.20635 8 5.83325 8.3731 5.83325 8.83333C5.83325 9.29357 6.20635 9.66667 6.66659 9.66667Z" fill="#777E91"/>
<path d="M9.99992 8C9.53968 8 9.16659 8.3731 9.16659 8.83333C9.16659 9.29357 9.53968 9.66667 9.99992 9.66667H13.3333C13.7935 9.66667 14.1666 9.29357 14.1666 8.83333C14.1666 8.3731 13.7935 8 13.3333 8H9.99992Z" fill="#777E91"/>
<path d="M9.99992 11.3333C9.53968 11.3333 9.16659 11.7064 9.16659 12.1667C9.16659 12.6269 9.53968 13 9.99992 13H13.3333C13.7935 13 14.1666 12.6269 14.1666 12.1667C14.1666 11.7064 13.7935 11.3333 13.3333 11.3333H9.99992Z" fill="#777E91"/>
<path d="M9.16659 15.5C9.16659 15.0398 9.53968 14.6667 9.99992 14.6667H11.6666C12.1268 14.6667 12.4999 15.0398 12.4999 15.5C12.4999 15.9602 12.1268 16.3333 11.6666 16.3333H9.99992C9.53968 16.3333 9.16659 15.9602 9.16659 15.5Z" fill="#777E91"/>
<path d="M7.49992 12.1667C7.49992 12.6269 7.12682 13 6.66659 13C6.20635 13 5.83325 12.6269 5.83325 12.1667C5.83325 11.7064 6.20635 11.3333 6.66659 11.3333C7.12682 11.3333 7.49992 11.7064 7.49992 12.1667Z" fill="#777E91"/>
<path d="M6.66659 16.3333C7.12682 16.3333 7.49992 15.9602 7.49992 15.5C7.49992 15.0398 7.12682 14.6667 6.66659 14.6667C6.20635 14.6667 5.83325 15.0398 5.83325 15.5C5.83325 15.9602 6.20635 16.3333 6.66659 16.3333Z" fill="#777E91"/>
<path fill-rule="evenodd" clip-rule="evenodd" d="M12.5 3.00016H7.5C7.03976 3.00016 6.66667 3.37326 6.66667 3.8335C6.66667 4.29373 7.03976 4.66683 7.5 4.66683H12.5C12.9602 4.66683 13.3333 4.29373 13.3333 3.8335C13.3333 3.37326 12.9602 3.00016 12.5 3.00016ZM7.5 1.3335C6.11929 1.3335 5 2.45278 5 3.8335C5 5.21421 6.11929 6.3335 7.5 6.3335H12.5C13.8807 6.3335 15 5.21421 15 3.8335C15 2.45278 13.8807 1.3335 12.5 1.3335H7.5Z" fill="#777E91"/>
</svg>
