<svg width="20" height="20" viewBox="0 0 20 20" fill="none" xmlns="http://www.w3.org/2000/svg">
<path fill-rule="evenodd" clip-rule="evenodd" d="M10.0001 18.3332C14.6025 18.3332 18.3334 14.6022 18.3334 9.99984C18.3334 5.39746 14.6025 1.6665 10.0001 1.6665C5.39771 1.6665 1.66675 5.39746 1.66675 9.99984C1.66675 14.6022 5.39771 18.3332 10.0001 18.3332ZM10.8334 5.83317C10.8334 5.37293 10.4603 4.99984 10.0001 4.99984C9.53984 4.99984 9.16675 5.37293 9.16675 5.83317V9.99984C9.16675 10.2209 9.25455 10.4328 9.41083 10.5891L11.4942 12.6724C11.8196 12.9979 12.3472 12.9979 12.6727 12.6724C12.9981 12.347 12.9981 11.8194 12.6727 11.4939L10.8334 9.65466V5.83317Z" fill="white"/>
</svg>
