<svg width="16" height="16" viewBox="0 0 16 16" fill="none" xmlns="http://www.w3.org/2000/svg">
<path fill-rule="evenodd" clip-rule="evenodd" d="M11.6667 9.99984C11.3653 9.99984 10.9394 10.0415 10.496 10.1022C10.2888 10.1306 10.1308 10.2886 10.1025 10.4957C10.0418 10.9391 10.0001 11.3651 10.0001 11.6665C10.0001 11.968 10.0418 12.3939 10.1025 12.8373C10.1308 13.0444 10.2888 13.2024 10.496 13.2308C10.9394 13.2915 11.3653 13.3332 11.6667 13.3332C11.9682 13.3332 12.3941 13.2915 12.8375 13.2308C13.0447 13.2024 13.2026 13.0444 13.231 12.8373C13.2917 12.3939 13.3334 11.968 13.3334 11.6665C13.3334 11.3651 13.2917 10.9391 13.231 10.4957C13.2026 10.2886 13.0447 10.1306 12.8375 10.1022C12.3941 10.0415 11.9682 9.99984 11.6667 9.99984ZM10.315 8.78123C9.5151 8.89079 8.89103 9.51486 8.78148 10.3148C8.71864 10.7736 8.66675 11.2719 8.66675 11.6665C8.66675 12.0611 8.71864 12.5594 8.78148 13.0182C8.89103 13.8181 9.5151 14.4422 10.315 14.5518C10.7738 14.6146 11.2722 14.6665 11.6667 14.6665C12.0613 14.6665 12.5597 14.6146 13.0185 14.5518C13.8184 14.4422 14.4425 13.8181 14.552 13.0182C14.6149 12.5594 14.6667 12.0611 14.6667 11.6665C14.6667 11.2719 14.6149 10.7736 14.552 10.3148C14.4425 9.51486 13.8184 8.89079 13.0185 8.78123C12.5597 8.7184 12.0613 8.6665 11.6667 8.6665C11.2722 8.6665 10.7738 8.7184 10.315 8.78123Z" fill="#91919C"/>
<path fill-rule="evenodd" clip-rule="evenodd" d="M4.33325 9.99984C4.0318 9.99984 3.60587 10.0415 3.16246 10.1022C2.95531 10.1306 2.79735 10.2886 2.76898 10.4957C2.70826 10.9391 2.66659 11.3651 2.66659 11.6665C2.66659 11.968 2.70826 12.3939 2.76898 12.8373C2.79735 13.0444 2.95531 13.2024 3.16246 13.2308C3.60587 13.2915 4.0318 13.3332 4.33325 13.3332C4.63471 13.3332 5.06064 13.2915 5.50404 13.2308C5.7112 13.2024 5.86915 13.0444 5.89752 12.8373C5.95825 12.3939 5.99992 11.968 5.99992 11.6665C5.99992 11.3651 5.95825 10.9391 5.89752 10.4957C5.86915 10.2886 5.7112 10.1306 5.50404 10.1022C5.06064 10.0415 4.63471 9.99984 4.33325 9.99984ZM2.98154 8.78123C2.18161 8.89079 1.55753 9.51486 1.44798 10.3148C1.38514 10.7736 1.33325 11.2719 1.33325 11.6665C1.33325 12.0611 1.38514 12.5594 1.44798 13.0182C1.55753 13.8181 2.18161 14.4422 2.98154 14.5518C3.44035 14.6146 3.93869 14.6665 4.33325 14.6665C4.72781 14.6665 5.22616 14.6146 5.68496 14.5518C6.4849 14.4422 7.10897 13.8181 7.21852 13.0182C7.28136 12.5594 7.33325 12.0611 7.33325 11.6665C7.33325 11.2719 7.28136 10.7736 7.21852 10.3148C7.10897 9.51486 6.4849 8.89079 5.68496 8.78123C5.22616 8.7184 4.72781 8.6665 4.33325 8.6665C3.93869 8.6665 3.44035 8.7184 2.98154 8.78123Z" fill="#91919C"/>
<path fill-rule="evenodd" clip-rule="evenodd" d="M11.6667 2.66683C11.3653 2.66683 10.9394 2.7085 10.496 2.76923C10.2888 2.7976 10.1308 2.95555 10.1025 3.1627C10.0418 3.60611 10.0001 4.03204 10.0001 4.3335C10.0001 4.63495 10.0418 5.06088 10.1025 5.50429C10.1308 5.71144 10.2888 5.8694 10.496 5.89777C10.9394 5.95849 11.3653 6.00016 11.6667 6.00016C11.9682 6.00016 12.3941 5.95849 12.8375 5.89777C13.0447 5.8694 13.2026 5.71144 13.231 5.50429C13.2917 5.06088 13.3334 4.63495 13.3334 4.3335C13.3334 4.03204 13.2917 3.60611 13.231 3.1627C13.2026 2.95555 13.0447 2.7976 12.8375 2.76923C12.3941 2.7085 11.9682 2.66683 11.6667 2.66683ZM10.315 1.44822C9.5151 1.55778 8.89103 2.18185 8.78148 2.98179C8.71864 3.44059 8.66675 3.93894 8.66675 4.3335C8.66675 4.72806 8.71864 5.2264 8.78148 5.68521C8.89103 6.48514 9.5151 7.10921 10.315 7.21877C10.7738 7.2816 11.2722 7.3335 11.6667 7.3335C12.0613 7.3335 12.5597 7.2816 13.0185 7.21877C13.8184 7.10921 14.4425 6.48514 14.552 5.68521C14.6149 5.2264 14.6667 4.72806 14.6667 4.3335C14.6667 3.93894 14.6149 3.44059 14.552 2.98179C14.4425 2.18185 13.8184 1.55778 13.0185 1.44822C12.5597 1.38539 12.0613 1.3335 11.6667 1.3335C11.2722 1.3335 10.7738 1.38539 10.315 1.44822Z" fill="#91919C"/>
<path fill-rule="evenodd" clip-rule="evenodd" d="M4.33325 2.66683C4.0318 2.66683 3.60587 2.7085 3.16246 2.76923C2.95531 2.7976 2.79735 2.95555 2.76898 3.1627C2.70826 3.60611 2.66659 4.03204 2.66659 4.3335C2.66659 4.63495 2.70826 5.06088 2.76898 5.50429C2.79735 5.71144 2.95531 5.8694 3.16246 5.89777C3.60587 5.95849 4.0318 6.00016 4.33325 6.00016C4.63471 6.00016 5.06064 5.95849 5.50404 5.89777C5.7112 5.8694 5.86915 5.71144 5.89752 5.50429C5.95825 5.06088 5.99992 4.63495 5.99992 4.3335C5.99992 4.03204 5.95825 3.60611 5.89752 3.1627C5.86915 2.95555 5.7112 2.7976 5.50404 2.76923C5.06064 2.7085 4.63471 2.66683 4.33325 2.66683ZM2.98154 1.44822C2.18161 1.55778 1.55753 2.18185 1.44798 2.98179C1.38514 3.44059 1.33325 3.93894 1.33325 4.3335C1.33325 4.72806 1.38514 5.2264 1.44798 5.68521C1.55753 6.48514 2.18161 7.10921 2.98154 7.21877C3.44035 7.2816 3.93869 7.3335 4.33325 7.3335C4.72781 7.3335 5.22616 7.2816 5.68496 7.21877C6.4849 7.10921 7.10897 6.48514 7.21852 5.68521C7.28136 5.2264 7.33325 4.72806 7.33325 4.3335C7.33325 3.93894 7.28136 3.44059 7.21852 2.98179C7.10897 2.18185 6.4849 1.55778 5.68496 1.44822C5.22616 1.38539 4.72781 1.3335 4.33325 1.3335C3.93869 1.3335 3.44035 1.38539 2.98154 1.44822Z" fill="#91919C"/>
</svg>
