<svg width="16" height="16" viewBox="0 0 16 16" fill="none" xmlns="http://www.w3.org/2000/svg">
<path d="M2.84418 9.95508C2.84199 10.0241 2.84513 10.0943 2.854 10.1652L3.13947 12.449C3.25022 13.335 4.00336 13.9998 4.89623 13.9998C5.87401 13.9998 6.66666 13.2072 6.66666 12.2294V10.1883C6.2306 10.0823 5.78391 10.0204 5.33333 10.0042V12.2294C5.33333 12.4708 5.13763 12.6665 4.89623 12.6665C4.67579 12.6665 4.48985 12.5024 4.46251 12.2836L4.17704 9.99984C5.82832 9.99984 4.16419 9.99983 3.33325 9.99983C3.16619 9.99983 3.00272 9.98447 2.84418 9.95508Z" fill="#777E91"/>
<path fill-rule="evenodd" clip-rule="evenodd" d="M5.09296 6.00024H3.33341C2.59704 6.00024 2.00008 6.59719 2.00008 7.33357C2.00008 8.06995 2.59704 8.6669 3.33341 8.6669H5.09296C6.33492 8.6669 7.55983 8.95606 8.67067 9.51149L12.3686 11.3605C12.8119 11.5821 13.3334 11.2598 13.3334 10.7642V3.90297C13.3334 3.40738 12.8119 3.08505 12.3686 3.30669L8.67067 5.15565C7.55983 5.71108 6.33492 6.00024 5.09296 6.00024ZM3.33341 4.6669C1.86066 4.6669 0.666748 5.86081 0.666748 7.33357C0.666748 8.80633 1.86066 10.0002 3.33341 10.0002H5.09296C6.12793 10.0002 7.14868 10.2412 8.07439 10.7041L11.7723 12.553C13.1021 13.2179 14.6667 12.2509 14.6667 10.7642V3.90297C14.6667 2.41621 13.1021 1.44922 11.7723 2.11412L8.07439 3.96308C7.14868 4.42594 6.12793 4.6669 5.09296 4.6669H3.33341Z" fill="#91919C"/>
<path d="M7.33333 10.3876C6.9012 10.2334 6.45437 10.1243 6 10.0619V4.60455C6.45437 4.54215 6.9012 4.433 7.33333 4.27881V10.3876Z" fill="#777E91"/>
<path d="M14.6667 8.60999C15.0551 8.47271 15.3334 8.1023 15.3334 7.66689V7.00023C15.3334 6.56482 15.0551 6.19441 14.6667 6.05713V8.60999Z" fill="#777E91"/>
</svg>
