<svg width="16" height="16" viewBox="0 0 16 16" fill="none" xmlns="http://www.w3.org/2000/svg">
<path d="M13 8.00016C13 7.84683 12.9934 7.70016 12.98 7.54683L14.22 6.60683C14.4867 6.40683 14.56 6.0335 14.3934 5.74016L13.1467 3.58683C12.98 3.2935 12.62 3.1735 12.3134 3.30683L10.88 3.9135C10.6334 3.74016 10.3734 3.58683 10.1 3.46016L9.90669 1.92016C9.86669 1.58683 9.58002 1.3335 9.24669 1.3335H6.76002C6.42002 1.3335 6.13335 1.58683 6.09335 1.92016L5.90002 3.46016C5.62669 3.58683 5.36669 3.74016 5.12002 3.9135L3.68669 3.30683C3.38002 3.1735 3.02002 3.2935 2.85335 3.58683L1.60669 5.74683C1.44002 6.04016 1.51335 6.40683 1.78002 6.6135L3.02002 7.5535C3.00669 7.70016 3.00002 7.84683 3.00002 8.00016C3.00002 8.1535 3.00669 8.30016 3.02002 8.4535L1.78002 9.3935C1.51335 9.5935 1.44002 9.96683 1.60669 10.2602L2.85335 12.4135C3.02002 12.7068 3.38002 12.8268 3.68669 12.6935L5.12002 12.0868C5.36669 12.2602 5.62669 12.4135 5.90002 12.5402L6.09335 14.0802C6.13335 14.4135 6.42002 14.6668 6.75335 14.6668H9.24002C9.57335 14.6668 9.86002 14.4135 9.90002 14.0802L10.0934 12.5402C10.3667 12.4135 10.6267 12.2602 10.8734 12.0868L12.3067 12.6935C12.6134 12.8268 12.9734 12.7068 13.14 12.4135L14.3867 10.2602C14.5534 9.96683 14.48 9.60016 14.2134 9.3935L12.9734 8.4535C12.9934 8.30016 13 8.1535 13 8.00016ZM8.02669 10.3335C6.74002 10.3335 5.69335 9.28683 5.69335 8.00016C5.69335 6.7135 6.74002 5.66683 8.02669 5.66683C9.31335 5.66683 10.36 6.7135 10.36 8.00016C10.36 9.28683 9.31335 10.3335 8.02669 10.3335Z" fill="#91919C"/>
</svg>
