<svg width="20" height="21" viewBox="0 0 20 21" fill="none" xmlns="http://www.w3.org/2000/svg">
<path fill-rule="evenodd" clip-rule="evenodd" d="M3.33325 3C1.95254 3 0.833252 4.11929 0.833252 5.5V15.5C0.833252 16.8807 1.95254 18 3.33325 18H16.6666C18.0473 18 19.1666 16.8807 19.1666 15.5V5.5C19.1666 4.11929 18.0473 3 16.6666 3H3.33325ZM5.53343 6.5265C5.17986 6.23187 4.65439 6.27964 4.35975 6.6332C4.06512 6.98676 4.11289 7.51224 4.46645 7.80687L8.39948 11.0844C9.32659 11.857 10.6733 11.857 11.6004 11.0844L15.5334 7.80687C15.887 7.51224 15.9348 6.98676 15.6401 6.6332C15.3455 6.27964 14.82 6.23187 14.4665 6.5265L10.5334 9.80402C10.2244 10.0616 9.77549 10.0616 9.46645 9.80403L5.53343 6.5265Z" fill="#777E91"/>
</svg>
