<svg width="16" height="16" viewBox="0 0 16 16" fill="none" xmlns="http://www.w3.org/2000/svg">
<path fill-rule="evenodd" clip-rule="evenodd" d="M13.8808 9.3719C13.5322 9.2479 13.1522 9.4299 13.0302 9.7779C12.2782 11.9046 10.2562 13.3332 8.00016 13.3332C5.0595 13.3332 2.66683 10.9412 2.66683 7.9999C2.66683 5.7439 4.0955 3.7219 6.22216 2.9699C6.5695 2.8479 6.7515 2.46723 6.62883 2.1199C6.50616 1.77323 6.1255 1.59056 5.77816 1.7139C3.1195 2.65323 1.3335 5.17923 1.3335 7.9999C1.3335 11.6759 4.32416 14.6666 8.00016 14.6666C10.8208 14.6666 13.3468 12.8812 14.2868 10.2219C14.4095 9.87523 14.2282 9.49456 13.8808 9.3719ZM9.3333 6.66683V2.71416C11.374 3.0075 12.9926 4.6255 13.286 6.66683H9.3333ZM8.66663 1.3335C8.29863 1.3335 7.99996 1.6315 7.99996 2.00016V7.3335C7.99996 7.70216 8.29863 8.00016 8.66663 8.00016H14C14.368 8.00016 14.6666 7.70216 14.6666 7.3335C14.6666 4.02483 11.9746 1.3335 8.66663 1.3335Z" fill="#91919C"/>
</svg>
