<svg width="16" height="16" viewBox="0 0 16 16" fill="none" xmlns="http://www.w3.org/2000/svg">
<path fill-rule="evenodd" clip-rule="evenodd" d="M9.93701 10.8801C9.03389 11.5821 7.89906 12.0002 6.66659 12.0002C3.72107 12.0002 1.33325 9.61235 1.33325 6.66683C1.33325 3.72131 3.72107 1.3335 6.66659 1.3335C9.6121 1.3335 11.9999 3.72131 11.9999 6.66683C11.9999 7.8993 11.5819 9.03414 10.8798 9.93726L14.4713 13.5288C14.7317 13.7891 14.7317 14.2112 14.4713 14.4716C14.211 14.7319 13.7889 14.7319 13.5285 14.4716L9.93701 10.8801ZM10.6666 6.66683C10.6666 8.87597 8.87572 10.6668 6.66659 10.6668C4.45745 10.6668 2.66659 8.87597 2.66659 6.66683C2.66659 4.45769 4.45745 2.66683 6.66659 2.66683C8.87572 2.66683 10.6666 4.45769 10.6666 6.66683Z" fill="#91919C"/>
</svg>
